<svg width="510" height="134" viewBox="0 0 510 134" fill="none" xmlns="http://www.w3.org/2000/svg" xmlns:xlink="http://www.w3.org/1999/xlink">
<path d="M193.705 95.78C187.621 95.78 182.395 94.584 178.027 92.192C173.659 89.8 170.279 86.446 167.887 82.13C165.547 77.814 164.377 72.77 164.377 66.998C164.377 61.278 165.573 56.26 167.965 51.944C170.357 47.576 173.659 44.17 177.871 41.726C182.135 39.282 187.075 38.06 192.691 38.06C197.319 38.06 201.453 38.892 205.093 40.556C208.785 42.22 211.749 44.508 213.985 47.42C216.273 50.28 217.625 53.608 218.041 57.404H206.029C205.509 54.336 204.053 51.944 201.661 50.228C199.321 48.46 196.383 47.576 192.847 47.576C189.571 47.576 186.711 48.356 184.267 49.916C181.823 51.424 179.925 53.608 178.573 56.468C177.221 59.328 176.545 62.76 176.545 66.764C176.545 70.924 177.221 74.486 178.573 77.45C179.925 80.362 181.901 82.598 184.501 84.158C187.153 85.666 190.403 86.42 194.251 86.42C197.371 86.42 200.023 86.03 202.207 85.25C204.391 84.47 206.055 83.378 207.199 81.974L218.587 86.498C215.571 89.514 212.061 91.828 208.057 93.44C204.105 95 199.321 95.78 193.705 95.78ZM206.575 86.498V71.054L208.993 73.472H194.173V64.268H218.587V86.498H206.575ZM245.156 95.78C240.736 95.78 236.888 94.922 233.612 93.206C230.336 91.438 227.788 88.994 225.968 85.874C224.2 82.754 223.316 79.166 223.316 75.11C223.316 71.002 224.2 67.414 225.968 64.346C227.788 61.226 230.31 58.808 233.534 57.092C236.758 55.324 240.502 54.44 244.766 54.44C248.874 54.44 252.436 55.272 255.452 56.936C258.468 58.6 260.808 60.914 262.472 63.878C264.136 66.842 264.968 70.326 264.968 74.33C264.968 75.162 264.942 75.942 264.89 76.67C264.838 77.346 264.76 77.996 264.656 78.62H230.18V70.898H255.218L253.19 72.302C253.19 69.078 252.41 66.712 250.85 65.204C249.342 63.644 247.262 62.864 244.61 62.864C241.542 62.864 239.15 63.904 237.434 65.984C235.77 68.064 234.938 71.184 234.938 75.344C234.938 79.4 235.77 82.416 237.434 84.392C239.15 86.368 241.698 87.356 245.078 87.356C246.95 87.356 248.562 87.044 249.914 86.42C251.266 85.796 252.28 84.782 252.956 83.378H263.954C262.654 87.226 260.418 90.268 257.246 92.504C254.126 94.688 250.096 95.78 245.156 95.78ZM271.225 95V55.22H282.691V64.58H282.925V95H271.225ZM297.979 95V69.728C297.979 67.7 297.433 66.218 296.341 65.282C295.301 64.294 293.819 63.8 291.895 63.8C290.231 63.8 288.697 64.19 287.293 64.97C285.941 65.698 284.875 66.764 284.095 68.168C283.315 69.52 282.925 71.132 282.925 73.004L281.911 64.034C283.211 61.122 285.083 58.808 287.527 57.092C290.023 55.324 293.013 54.44 296.497 54.44C300.657 54.44 303.881 55.61 306.169 57.95C308.509 60.29 309.679 63.228 309.679 66.764V95H297.979ZM324.733 95V69.728C324.733 67.7 324.187 66.218 323.095 65.282C322.055 64.294 320.573 63.8 318.649 63.8C316.985 63.8 315.451 64.19 314.047 64.97C312.695 65.698 311.629 66.764 310.849 68.168C310.069 69.52 309.679 71.132 309.679 73.004L307.885 64.034C309.185 61.122 311.109 58.808 313.657 57.092C316.257 55.324 319.377 54.44 323.017 54.44C327.333 54.44 330.635 55.662 332.923 58.106C335.263 60.498 336.433 63.644 336.433 67.544V95H324.733Z" fill="white"/>
<path d="M351.58 95V89.696H369.52C372.952 89.696 375.682 88.76 377.71 86.888C379.738 85.016 380.752 82.494 380.752 79.322C380.752 75.942 379.686 73.238 377.554 71.21C375.422 69.182 372.562 68.168 368.974 68.168H351.58V63.02H368.116C371.652 63.02 374.408 62.162 376.384 60.446C378.36 58.73 379.348 56.312 379.348 53.192C379.348 50.28 378.412 48.044 376.54 46.484C374.72 44.924 372.042 44.144 368.506 44.144H351.58V38.84H369.052C374.2 38.84 378.256 40.062 381.22 42.506C384.236 44.95 385.744 48.278 385.744 52.49C385.744 55.142 385.146 57.508 383.95 59.588C382.754 61.668 381.116 63.306 379.036 64.502C376.956 65.646 374.564 66.218 371.86 66.218L372.25 64.58C375.11 64.58 377.658 65.256 379.894 66.608C382.182 67.96 383.976 69.806 385.276 72.146C386.628 74.434 387.304 77.06 387.304 80.024C387.304 82.988 386.576 85.614 385.12 87.902C383.716 90.138 381.714 91.88 379.114 93.128C376.514 94.376 373.498 95 370.066 95H351.58ZM347.368 95V38.84H353.764V95H347.368ZM399.92 110.99L408.812 90.32L410.216 88.136L423.242 55.22H429.638L406.55 110.99H399.92ZM409.514 95.39L391.652 55.22H398.516L413.882 91.178L409.514 95.39ZM454.523 95.702C450.103 95.702 446.879 94.714 444.851 92.738C442.875 90.71 441.887 87.798 441.887 84.002V45.938L448.127 43.598V83.924C448.127 86.16 448.699 87.798 449.843 88.838C450.987 89.878 452.859 90.398 455.459 90.398C456.499 90.398 457.383 90.346 458.111 90.242C458.891 90.086 459.515 89.904 459.983 89.696V95C459.463 95.208 458.709 95.364 457.721 95.468C456.785 95.624 455.719 95.702 454.523 95.702ZM433.697 60.524V55.22H459.983V60.524H433.697ZM483.478 95.78C479.682 95.78 476.328 94.896 473.416 93.128C470.504 91.308 468.216 88.838 466.552 85.718C464.888 82.598 464.056 79.01 464.056 74.954C464.056 70.898 464.862 67.336 466.474 64.268C468.138 61.148 470.452 58.73 473.416 57.014C476.38 55.298 479.786 54.44 483.634 54.44C487.326 54.44 490.524 55.246 493.228 56.858C495.984 58.47 498.09 60.732 499.546 63.644C501.054 66.556 501.808 69.988 501.808 73.94C501.808 74.46 501.782 74.954 501.73 75.422C501.73 75.89 501.678 76.41 501.574 76.982H468.736V71.756H497.752L495.724 74.642C495.724 69.858 494.658 66.192 492.526 63.644C490.446 61.044 487.482 59.744 483.634 59.744C479.682 59.744 476.484 61.122 474.04 63.878C471.648 66.582 470.452 70.248 470.452 74.876C470.452 79.608 471.648 83.404 474.04 86.264C476.484 89.072 479.734 90.476 483.79 90.476C486.338 90.476 488.574 89.93 490.498 88.838C492.422 87.694 493.826 86.082 494.71 84.002H500.638C499.338 87.642 497.154 90.528 494.086 92.66C491.07 94.74 487.534 95.78 483.478 95.78Z" fill="#77EBFF"/>
<rect x="59.083" y="30.6684" width="78.4192" height="59.083" transform="rotate(90 59.083 30.6684)" fill="url(#pattern0_990_9)"/>
<path d="M123 85.802L96.7596 77.4734L100.378 43.8014L120.104 53.7197L123 85.802Z" fill="#77EBFF"/>
<path d="M39.7084 53.9846L96.7596 77.4734L100.378 43.8014L67.3946 29.8346L39.7084 53.9846Z" fill="#77EBFF"/>
<path d="M39.7084 53.9846L43.8725 113.922L96.7596 77.4734L39.7084 53.9846Z" fill="#77EBFF"/>
<path d="M16.6506 42.469L39.7084 53.9846L67.3946 29.8346L44.042 21.0005L16.6506 42.469Z" fill="#77EBFF"/>
<path d="M16.6506 42.469L43.8725 113.922L39.7084 53.9846L16.6506 42.469Z" fill="#77EBFF"/>
<path d="M43.8725 113.922L123 85.802L96.7596 77.4734L43.8725 113.922Z" fill="#77EBFF"/>
<path d="M67.3946 29.8346L44.042 21.0005L16.6506 42.469L43.8725 113.922L123 85.802L120.104 53.7197L100.378 43.8014L67.3946 29.8346ZM43.8725 113.922L39.7084 53.9846M43.8725 113.922L96.7596 77.4734M16.6506 42.469L39.7084 53.9846M39.7084 53.9846L96.7596 77.4734M39.7084 53.9846L67.3946 29.8346M96.7596 77.4734L100.378 43.8014M96.7596 77.4734L123 85.802" stroke="#D0F8FF"/>
<defs>
<pattern id="pattern0_990_9" patternUnits="userSpaceOnUse" patternTransform="matrix(9 0 0 4.5 59.083 30.6684)" preserveAspectRatio="none" viewBox="0 0 15 7.5" width="1" height="1">
<use xlink:href="#pattern0_990_9_inner" transform="translate(0 -7.5)"/>
<use xlink:href="#pattern0_990_9_inner" transform="translate(7.5 -3.75)"/>
<g id="pattern0_990_9_inner">
<rect x="0.5" y="0.5" width="4" height="4" fill="#77EBFF" stroke="#D0F8FF"/>
</g>
<use xlink:href="#pattern0_990_9_inner" transform="translate(7.5 3.75)"/>
</pattern></defs>
</svg>
